HIERARCHY
ROOT Hips
{
	OFFSET 0.000000 0.000000 0.000000
	CHANNELS 6 Xposition Yposition Zposition Xrotation Yrotation Zrotation
	JOINT LeftUpLeg_virtual
	{
		OFFSET 0.000000 0.000000 0.000000
		CHANNELS 3 Xrotation Yrotation Zrotation
		JOINT LeftUpLeg
		{
			OFFSET 13.026900 -6.336304 -1.092800
			CHANNELS 3 Xrotation Yrotation Zrotation
			JOINT LeftLeg
			{
				OFFSET 0.524474 -46.096886 9.782700
				CHANNELS 3 Xrotation Yrotation Zrotation
				JOINT LeftFoot
				{
					OFFSET -0.524474 -53.427422 -12.948200
					CHANNELS 3 Xrotation Yrotation Zrotation
					JOINT LeftToeBase
					{
						OFFSET 0.192200 -14.009700 16.364100
						CHANNELS 3 Xrotation Yrotation Zrotation
						JOINT LeftToe_End
						{
							OFFSET -1.784700 -0.561700 9.474800
							CHANNELS 3 Xrotation Yrotation Zrotation
							End Site
							{
								OFFSET 0 0 0
							}
						}
					}
				}
			}
		}
	}
	JOINT RightUpLeg_virtual
	{
		OFFSET 0.000000 0.000000 0.000000
		CHANNELS 3 Xrotation Yrotation Zrotation
		JOINT RightUpLeg
		{
			OFFSET -12.883000 -6.336304 -1.092800
			CHANNELS 3 Xrotation Yrotation Zrotation
			JOINT RightLeg
			{
				OFFSET -0.524587 -46.096825 9.782800
				CHANNELS 3 Xrotation Yrotation Zrotation
				JOINT RightFoot
				{
					OFFSET 0.524587 -53.427383 -12.948300
					CHANNELS 3 Xrotation Yrotation Zrotation
					JOINT RightToeBase
					{
						OFFSET -0.192200 -14.009700 16.364100
						CHANNELS 3 Xrotation Yrotation Zrotation
						JOINT RightToe_End
						{
							OFFSET 1.784700 -0.561700 9.474800
							CHANNELS 3 Xrotation Yrotation Zrotation
							End Site
							{
								OFFSET 0 0 0
							}
						}
					}
				}
			}
		}
	}
	JOINT Spine_virtual
	{
		OFFSET 0.000000 0.000000 0.000000
		CHANNELS 3 Xrotation Yrotation Zrotation
		JOINT Spine
		{
			OFFSET 0.072000 7.257294 -0.789700
			CHANNELS 3 Xrotation Yrotation Zrotation
			JOINT Spine1
			{
				OFFSET 0.000000 12.508769 -0.658067
				CHANNELS 3 Xrotation Yrotation Zrotation
				JOINT Spine1_split
				{
					OFFSET 0.000000 12.508769 -0.658067
					CHANNELS 3 Xrotation Yrotation Zrotation
					JOINT Spine2
					{
						OFFSET 0.000000 12.508769 -0.658067
						CHANNELS 3 Xrotation Yrotation Zrotation
						JOINT Neck_virtual
						{
							OFFSET 0.000000 0.000000 0.000000
							CHANNELS 3 Xrotation Yrotation Zrotation
							JOINT Neck
							{
								OFFSET 0.000000 14.033295 7.520400
								CHANNELS 3 Xrotation Yrotation Zrotation
								JOINT Head
								{
									OFFSET 0.000000 8.198502 5.703100
									CHANNELS 3 Xrotation Yrotation Zrotation
									JOINT HeadTop_End
									{
										OFFSET 0.000000 17.760803 13.332701
										CHANNELS 3 Xrotation Yrotation Zrotation
										End Site
										{
											OFFSET 0 0 0
										}
									}
								}
							}
						}
						JOINT LeftShoulder_virtual
						{
							OFFSET 0.000000 0.000000 0.000000
							CHANNELS 3 Xrotation Yrotation Zrotation
							JOINT LeftShoulder
							{
								OFFSET 6.292450 5.785301 -0.669000
								CHANNELS 3 Xrotation Yrotation Zrotation
								JOINT LeftShoulder_split
								{
									OFFSET 6.292450 5.785301 -0.669000
									CHANNELS 3 Xrotation Yrotation Zrotation
									JOINT LeftArm
									{
										OFFSET 13.907140 -6.093903 1.965100
										CHANNELS 3 Xrotation Yrotation Zrotation
										JOINT LeftForeArm
										{
											OFFSET 34.140198 0.000000 0.000000
											CHANNELS 3 Xrotation Yrotation Zrotation
											JOINT LeftHand
											{
												OFFSET 40.960209 0.000000 0.000000
												CHANNELS 3 Xrotation Yrotation Zrotation
												End Site
												{
													OFFSET 0 0 0
												}
											}
										}
									}
								}
							}
						}
						JOINT RightShoulder_virtual
						{
							OFFSET 0.000000 0.000000 0.000000
							CHANNELS 3 Xrotation Yrotation Zrotation
							JOINT RightShoulder
							{
								OFFSET -6.292450 5.785301 -0.669000
								CHANNELS 3 Xrotation Yrotation Zrotation
								JOINT RightShoulder_split
								{
									OFFSET -6.292450 5.785301 -0.669000
									CHANNELS 3 Xrotation Yrotation Zrotation
									JOINT RightArm
									{
										OFFSET -13.907140 -6.093903 1.965100
										CHANNELS 3 Xrotation Yrotation Zrotation
										JOINT RightForeArm
										{
											OFFSET -34.140198 0.000000 0.000000
											CHANNELS 3 Xrotation Yrotation Zrotation
											JOINT RightHand
											{
												OFFSET -40.960209 0.000000 0.000000
												CHANNELS 3 Xrotation Yrotation Zrotation
												End Site
												{
													OFFSET 0 0 0
												}
											}
										}
									}
								}
							}
						}
					}
				}
			}
		}
	}
}
MOTION
Frames: 6
Frame Time: 0.03333333
3.217490 105.881882 3.839890 0.000000 0.000000 0.000000 -2.426976 -49.737195 -4.324490 -30.789837 4.852121 15.254488 36.337378 -13.792452 2.772643 -5.334602 -4.052677 -6.411571 -2.449515 -2.261508 0.888125 0.000000 0.000000 0.000000 -3.076333 -47.161213 -3.706380 -3.960569 -0.686328 -12.672171 25.660828 -10.864726 -0.795885 -18.106183 -2.655793 20.213820 -4.411127 0.253052 1.690667 0.000000 0.000000 0.000000 -5.095547 -48.946160 -5.022883 10.912246 7.229469 0.856711 10.948873 9.751675 -4.023396 -0.986247 1.807756 0.596289 0.000000 0.000000 0.000000 12.201084 9.541580 -4.753681 -17.070261 -3.391584 2.944568 2.195397 23.346463 -5.891938 0.000000 0.000000 0.000000 13.594207 8.855710 -3.535724 0.537729 -2.586007 -10.052859 0.780178 1.574581 2.915053 -11.360017 -4.981694 -58.337923 8.686010 -58.830127 -0.436193 0.000000 0.000000 0.000000 10.475996 9.723474 -3.130174 1.167697 17.027728 6.263260 3.541482 -0.000080 2.038327 -18.746067 -21.836910 69.032619 3.514519 47.920935 -2.628377 0.000000 0.000000 0.000000 
4.949379 105.791168 2.591167 0.000000 0.000000 0.000000 -0.082660 -51.033449 -2.735266 -32.872922 2.804505 15.652949 36.054513 -12.977657 2.455492 -4.420311 -3.440901 -5.342480 -1.570591 -2.185986 0.775307 0.000000 0.000000 0.000000 -1.384225 -47.526273 -2.573387 -5.384601 -1.049631 -13.584140 27.783039 -10.203297 -0.739043 -18.118692 -2.159737 20.727145 -2.424334 0.112270 1.629590 0.000000 0.000000 0.000000 -2.932167 -49.864759 -3.527977 10.872935 7.451543 0.952185 11.232351 9.550182 -3.992693 -0.295641 0.651001 1.322785 0.000000 0.000000 0.000000 12.613736 9.375583 -4.785625 -16.997127 -2.184512 3.430886 1.680800 24.594301 -6.289397 0.000000 0.000000 0.000000 13.750674 8.632207 -3.750734 0.249098 -3.759760 -8.895228 -0.768158 -1.440058 0.248444 -11.875901 -3.905147 -57.780682 6.163426 -52.605393 -1.721871 0.000000 0.000000 0.000000 10.498876 9.583402 -3.241861 0.721071 16.969380 6.580909 4.940476 0.111056 1.927419 -16.209460 -21.691212 68.923890 3.074975 50.402298 -2.388071 0.000000 0.000000 0.000000 
7.182342 104.133018 0.440731 0.000000 0.000000 0.000000 3.481087 -51.829026 0.636339 -38.271213 0.239384 15.316436 37.282690 -11.037511 2.103625 -3.262976 -1.504046 -5.178815 -0.224087 -1.992621 0.397623 0.000000 0.000000 0.000000 1.889924 -47.860276 0.342847 -11.464487 -0.412644 -15.242742 33.092912 -9.702126 -0.526923 -17.585584 -1.632711 21.197419 -1.164561 -0.012332 1.245715 0.000000 0.000000 0.000000 1.117546 -50.562610 0.070118 10.921540 7.495222 0.725067 11.818785 9.081089 -4.011480 -0.034037 -0.563612 0.926224 0.000000 0.000000 0.000000 13.434495 8.823549 -4.895395 -18.547256 -1.052546 4.594522 0.345584 26.993534 -7.019092 0.000000 0.000000 0.000000 14.052073 8.128484 -4.032244 -0.221863 -5.401625 -7.092474 -2.499842 -4.849042 -2.846569 -12.988925 -7.100298 -55.532751 7.471455 -45.053068 0.014814 0.000000 0.000000 0.000000 10.961341 9.108986 -3.448004 -0.093839 16.769801 7.184025 5.440401 1.111256 1.923916 -13.527628 -19.857517 67.250350 1.892451 52.602886 -1.506933 0.000000 0.000000 0.000000 
9.492643 101.139061 -2.252575 0.000000 0.000000 0.000000 8.339068 -51.939801 5.617857 -46.021214 -2.336705 13.545567 40.420680 -8.587569 1.901865 -1.765970 1.080726 -6.766240 0.587140 -1.708128 -0.077471 0.000000 0.000000 0.000000 6.493476 -48.482851 4.978919 -21.478276 1.238492 -17.484752 41.036787 -9.372932 -0.259359 -16.989862 -0.964920 21.100114 -0.488504 -0.127682 0.646804 0.000000 0.000000 0.000000 6.877955 -50.652003 5.580090 10.842304 7.320408 0.165390 12.577559 8.340942 -4.024674 -0.757313 -1.851679 0.464176 0.000000 0.000000 0.000000 14.425179 8.011732 -4.986085 -21.519978 -0.037421 6.114757 -1.126415 30.122159 -7.925337 0.000000 0.000000 0.000000 14.447681 7.398878 -4.231484 -0.774003 -6.920533 -5.425072 -3.197576 -6.763833 -5.556422 -15.376247 -12.741207 -52.316568 10.132304 -38.374291 2.531938 0.000000 0.000000 0.000000 11.818711 8.319304 -3.686132 -1.094417 16.671366 8.229777 4.815636 2.985172 2.232961 -11.136536 -16.555229 64.189995 0.057950 53.727774 0.130119 0.000000 0.000000 0.000000 
11.641294 97.286644 -5.209839 0.000000 0.000000 0.000000 13.844447 -51.164612 11.562213 -55.070234 -4.515334 10.707591 45.388373 -6.093965 1.888181 0.034081 3.389835 -10.000958 0.289148 -1.381160 -0.378221 0.000000 0.000000 0.000000 11.737683 -48.873934 10.887411 -33.976486 3.766370 -19.882025 50.858459 -9.219704 0.120331 -16.343014 -0.178474 20.252708 0.251715 -0.249210 0.053175 0.000000 0.000000 0.000000 13.616007 -49.904743 12.125689 10.509137 6.863494 -0.723570 13.454600 7.381251 -4.040034 -0.760100 -3.050841 -0.064365 0.000000 0.000000 0.000000 15.318547 7.041626 -4.946943 -25.400680 0.854787 7.687439 -1.985461 33.444475 -8.952929 0.000000 0.000000 0.000000 14.820505 6.526618 -4.333846 -1.410117 -8.103784 -4.749899 -2.664764 -7.048926 -5.589395 -18.060618 -18.250484 -49.296043 12.536177 -34.705042 4.659751 0.000000 0.000000 0.000000 12.972873 7.303073 -3.858752 -2.270439 17.131709 10.124346 3.111557 5.697781 2.684781 -9.571358 -12.523622 59.995186 -2.536380 53.114174 2.546701 0.000000 0.000000 0.000000 
13.282338 93.162521 -7.633205 0.000000 0.000000 0.000000 19.122035 -49.115641 17.389154 -64.387661 -5.917238 7.699588 51.508765 -3.870281 1.874598 1.640959 4.721507 -13.913016 -0.820417 -1.076469 -0.412551 0.000000 0.000000 0.000000 16.877821 -48.846801 17.185203 -46.954836 6.744400 -21.949636 61.785761 -8.809458 0.539874 -15.564010 0.792467 19.386584 0.667349 -0.392663 -0.459591 0.000000 0.000000 0.000000 20.169270 -48.752879 18.409733 9.931885 6.025834 -1.818135 14.320627 6.262115 -4.089887 -0.173117 -4.228253 0.182100 0.000000 0.000000 0.000000 15.894096 5.974862 -4.776528 -29.620372 1.760481 9.251092 -1.722486 36.416369 -10.026356 0.000000 0.000000 0.000000 15.185467 5.559733 -4.428395 -2.189888 -8.841640 -5.551001 -1.407108 -5.761359 -3.943315 -20.156766 -21.384506 -47.172066 13.869602 -36.045374 6.234531 0.000000 0.000000 0.000000 14.237418 6.177873 -3.945695 -3.738120 18.510637 13.253001 0.506266 7.965705 3.237369 -9.041452 -8.835259 55.148747 -5.520251 51.089894 5.255510 0.000000 0.000000 0.000000 
